<?xml version="1.0" encoding="utf-8"?>
<!-- Generator: Adobe Illustrator 28.0.0, SVG Export Plug-In . SVG Version: 6.00 Build 0)  -->
<svg version="1.1"
	 id="svg11" xmlns:sodipodi="http://sodipodi.sourceforge.net/DTD/sodipodi-0.dtd" xmlns:svg="http://www.w3.org/2000/svg" xmlns:inkscape="http://www.inkscape.org/namespaces/inkscape"
	 xmlns="http://www.w3.org/2000/svg" xmlns:xlink="http://www.w3.org/1999/xlink" x="0px" y="0px" viewBox="0 0 600 600"
	 style="enable-background:new 0 0 600 600;" xml:space="preserve">
<style type="text/css">
	.st0{fill:url(#path5412_00000163786819687919182600000007221167997879936166_);}
	.st1{fill:url(#path422_00000042712467752495315780000002028771759960832153_);}
	.st2{fill:#FFFFFF;}
	.st3{fill:url(#path9523_00000069370144478859059770000016911760087277413771_);}
	.st4{font-family:'Arial-BoldMT';}
	.st5{font-size:21.3333px;}
	.st6{fill:url(#path9751_00000157280312288722373250000000540961255033581727_);}
	.st7{fill:url(#path9761_00000183220565749065466360000014479034469557471371_);}
	.st8{fill:url(#path9829_00000178893671809729536650000009726110195540425606_);}
	.st9{fill:#1A1A1A;}
	.st10{fill:url(#path759_00000004533623023878308770000002823558109994358711_);}
	.st11{fill:url(#path2240_00000130616382039511732080000015829458229703447435_);}
	.st12{fill:url(#path338_00000021121015420830229220000001416827352540628411_);}
</style>
<sodipodi:namedview  bordercolor="#000000" borderopacity="0.25" id="namedview13" inkscape:current-layer="svg11" inkscape:cx="11.119001" inkscape:cy="90.307984" inkscape:deskcolor="#d1d1d1" inkscape:pagecheckerboard="0" inkscape:pageopacity="0.0" inkscape:showpageshadow="2" inkscape:window-height="847" inkscape:window-maximized="1" inkscape:window-width="1440" inkscape:window-x="0" inkscape:window-y="25" inkscape:zoom="1.8436908" pagecolor="#ffffff" showgrid="false" showguides="true">
	</sodipodi:namedview>
<linearGradient id="path5412_00000103975069179739639490000015397341115133550758_" gradientUnits="userSpaceOnUse" x1="-636.0828" y1="865.4752" x2="-635.3851" y2="866.1721" gradientTransform="matrix(26.0005 0 0 -25.9993 16566.4746 22610.8711)">
	<stop  offset="0" style="stop-color:#FF8E00"/>
	<stop  offset="1" style="stop-color:#E12200"/>
</linearGradient>
<path id="path5412" inkscape:export-filename="../../Desktop/path9.png" inkscape:export-xdpi="3733.2917" inkscape:export-ydpi="3733.2917" sodipodi:nodetypes="ccccccccccccccccccccccccccc" style="fill:url(#path5412_00000103975069179739639490000015397341115133550758_);" d="
	M46.5,93l-2.1,2.1C44,95.5,43.8,96,44,96.5c1.4,3,0.9,6.5-1.5,8.9c-2.3,2.3-5.9,2.9-8.9,1.4c-0.4-0.2-1,0-1.3,0.3l-2.2,2.2
	c-0.3,0.2-0.4,0.6-0.3,1c0,0.4,0.2,0.7,0.5,0.9c5.1,3.1,11.7,2.3,15.9-1.9c4.2-4.2,5-10.8,2-15.9c-0.2-0.3-0.5-0.5-0.8-0.6
	C47.1,92.6,46.7,92.8,46.5,93L46.5,93z M28,90.7c-4.3,4.2-5.1,10.8-2,15.9c0.2,0.3,0.5,0.5,0.8,0.6c0.4,0,0.7-0.1,1-0.3l2.1-2.1
	c0.4-0.3,0.6-0.9,0.4-1.3c-1.4-3-0.9-6.5,1.5-8.9c2.3-2.3,5.9-2.9,8.9-1.4c0.4,0.2,0.9,0,1.3-0.3l2.2-2.2c0.3-0.2,0.4-0.6,0.3-1
	c0-0.4-0.2-0.7-0.5-0.9C38.8,85.7,32.2,86.5,28,90.7L28,90.7z"/>
<g id="g9521">
	<g id="g3226" transform="translate(42.333011,90.667253)">
		
			<linearGradient id="path422_00000180361320344060092970000012199690845753406087_" gradientUnits="userSpaceOnUse" x1="-682.787" y1="769.9562" x2="-681.8776" y2="770.8655" gradientTransform="matrix(32 0 0 -32 21828.7539 24623.3926)">
			<stop  offset="0" style="stop-color:#FF8E00"/>
			<stop  offset="1" style="stop-color:#E12200"/>
		</linearGradient>
		<path id="path422" style="fill:url(#path422_00000180361320344060092970000012199690845753406087_);" d="M5.1-13.7h-22
			c-2.8,0-5-2.2-5-5v-22c0-2.8,2.2-5,5-5h22c2.8,0,5,2.2,5,5v22C10.1-16,7.9-13.7,5.1-13.7z"/>
	</g>
	
		<path id="path9011" inkscape:export-filename="../../Desktop/path9.png" inkscape:export-xdpi="3733.2917" inkscape:export-ydpi="3733.2917" sodipodi:nodetypes="ccccccccccccccccccccccccccc" class="st2" d="
		M44.3,55.1l-1.8,1.8c-0.3,0.3-0.5,0.7-0.3,1.1c1.2,2.5,0.7,5.5-1.2,7.5c-2,2-5,2.4-7.5,1.2c-0.4-0.2-0.8,0-1.1,0.3l-1.8,1.8
		c-0.2,0.2-0.3,0.5-0.3,0.8c0,0.3,0.2,0.6,0.5,0.7c4.3,2.6,9.9,2,13.5-1.6c3.6-3.6,4.3-9.1,1.7-13.4c-0.1-0.3-0.4-0.4-0.7-0.5
		C44.8,54.8,44.5,54.9,44.3,55.1z M28.7,53.1c-3.6,3.6-4.3,9.1-1.7,13.4c0.1,0.3,0.4,0.4,0.7,0.5c0.3,0,0.6-0.1,0.8-0.3l1.8-1.8
		c0.3-0.3,0.5-0.7,0.3-1.1c-1.2-2.5-0.7-5.5,1.2-7.5c2-2,5-2.4,7.5-1.2c0.4,0.2,0.8,0,1.1-0.3l1.8-1.8c0.2-0.2,0.3-0.5,0.3-0.8
		c0-0.3-0.2-0.6-0.5-0.7C37.8,48.9,32.2,49.6,28.7,53.1L28.7,53.1z"/>
</g>
<linearGradient id="path9523_00000007403008465747819640000003349004075606061468_" gradientUnits="userSpaceOnUse" x1="-636.0828" y1="865.4752" x2="-635.3851" y2="866.1721" gradientTransform="matrix(26.0005 0 0 -25.9993 16566.4746 22610.8711)">
	<stop  offset="0" style="stop-color:#FF8E00"/>
	<stop  offset="1" style="stop-color:#E12200"/>
</linearGradient>
<path id="path9523" inkscape:export-filename="../../Desktop/path9.png" inkscape:export-xdpi="2599.3848" inkscape:export-ydpi="2599.3848" sodipodi:nodetypes="ccccccccccccccccccccccccccc" style="fill:url(#path9523_00000007403008465747819640000003349004075606061468_);" d="
	M46.5,93l-2.1,2.1C44,95.5,43.8,96,44,96.5c1.4,3,0.9,6.5-1.5,8.9c-2.3,2.3-5.9,2.9-8.9,1.4c-0.4-0.2-1,0-1.3,0.3l-2.2,2.2
	c-0.3,0.2-0.4,0.6-0.3,1c0,0.4,0.2,0.7,0.5,0.9c5.1,3.1,11.7,2.3,15.9-1.9c4.2-4.2,5-10.8,2-15.9c-0.2-0.3-0.5-0.5-0.8-0.6
	C47.1,92.6,46.7,92.8,46.5,93L46.5,93z M28,90.7c-4.3,4.2-5.1,10.8-2,15.9c0.2,0.3,0.5,0.5,0.8,0.6c0.4,0,0.7-0.1,1-0.3l2.1-2.1
	c0.4-0.3,0.6-0.9,0.4-1.3c-1.4-3-0.9-6.5,1.5-8.9c2.3-2.3,5.9-2.9,8.9-1.4c0.4,0.2,0.9,0,1.3-0.3l2.2-2.2c0.3-0.2,0.4-0.6,0.3-1
	c0-0.4-0.2-0.7-0.5-0.9C38.8,85.7,32.2,86.5,28,90.7L28,90.7z"/>
<g id="g9759" transform="translate(18.35032,5.5050959)">
	<g id="g8359">
		<text transform="matrix(1 0 0 1 31.1993 19.9789)" class="st4 st5">rustdesk</text>
	</g>
	
		<linearGradient id="path9751_00000134232053168789582760000015128792326138475138_" gradientUnits="userSpaceOnUse" x1="-654.4332" y1="859.9702" x2="-653.7354" y2="860.6671" gradientTransform="matrix(26.0005 0 0 -25.9993 17019.4238 22380.8047)">
		<stop  offset="0" style="stop-color:#FF8E00"/>
		<stop  offset="1" style="stop-color:#E12200"/>
	</linearGradient>
	
		<path id="path9751" inkscape:export-filename="../../Desktop/path9.png" inkscape:export-xdpi="3733.2917" inkscape:export-ydpi="3733.2917" sodipodi:nodetypes="ccccccccccccccccccccccccccc" style="fill:url(#path9751_00000134232053168789582760000015128792326138475138_);" d="
		M22.3,6.1l-2.1,2.1c-0.4,0.3-0.6,0.9-0.3,1.3c1.4,3,0.9,6.5-1.5,8.9c-2.3,2.3-5.9,2.9-8.9,1.4c-0.4-0.2-1,0-1.3,0.3l-2.2,2.2
		c-0.3,0.2-0.4,0.6-0.3,1c0,0.4,0.2,0.7,0.5,0.9c5.1,3.1,11.7,2.3,15.9-1.9c4.2-4.2,5-10.8,2-15.9C24,6,23.6,5.8,23.3,5.8
		C22.9,5.7,22.6,5.8,22.3,6.1L22.3,6.1z M3.9,3.8c-4.3,4.2-5.1,10.8-2,15.9C2,20,2.3,20.2,2.7,20.2c0.4,0,0.7-0.1,1-0.3l2.1-2.1
		c0.4-0.3,0.6-0.9,0.4-1.3c-1.4-3-0.9-6.5,1.5-8.9c2.3-2.3,5.9-2.9,8.9-1.4c0.4,0.2,0.9,0,1.3-0.3l2.2-2.2c0.3-0.2,0.4-0.6,0.3-1
		c0-0.4-0.2-0.7-0.5-0.9C14.6-1.2,8-0.4,3.9,3.8L3.9,3.8z"/>
</g>
<g id="g9767" transform="translate(95.04653,2.2707362)">
	<g id="g9763" transform="translate(42.333011,90.667253)">
		
			<linearGradient id="path9761_00000181083215145267152490000007891815906588442038_" gradientUnits="userSpaceOnUse" x1="-777.8336" y1="767.6854" x2="-776.9242" y2="768.5948" gradientTransform="matrix(32 0 0 -32 24870.2422 24550.7285)">
			<stop  offset="0" style="stop-color:#FF8E00"/>
			<stop  offset="1" style="stop-color:#E63901"/>
		</linearGradient>
		<path id="path9761" style="fill:url(#path9761_00000181083215145267152490000007891815906588442038_);" d="M5.1-13.7h-22
			c-2.8,0-5-2.2-5-5v-22c0-2.8,2.2-5,5-5h22c2.8,0,5,2.2,5,5v22C10.1-16,7.9-13.7,5.1-13.7z"/>
	</g>
	
		<path id="path9765" inkscape:export-filename="../../Desktop/path9.png" inkscape:export-xdpi="3733.2917" inkscape:export-ydpi="3733.2917" sodipodi:nodetypes="ccccccccccccccccccccccccccc" class="st2" d="
		M44.3,55.1l-1.8,1.8c-0.3,0.3-0.5,0.7-0.3,1.1c1.2,2.5,0.7,5.5-1.2,7.5c-2,2-5,2.4-7.5,1.2c-0.4-0.2-0.8,0-1.1,0.3l-1.8,1.8
		c-0.2,0.2-0.3,0.5-0.3,0.8c0,0.3,0.2,0.6,0.5,0.7c4.3,2.6,9.9,2,13.5-1.6c3.6-3.6,4.3-9.1,1.7-13.4c-0.1-0.3-0.4-0.4-0.7-0.5
		C44.8,54.8,44.5,54.9,44.3,55.1z M28.7,53.1c-3.6,3.6-4.3,9.1-1.7,13.4c0.1,0.3,0.4,0.4,0.7,0.5c0.3,0,0.6-0.1,0.8-0.3l1.8-1.8
		c0.3-0.3,0.5-0.7,0.3-1.1c-1.2-2.5-0.7-5.5,1.2-7.5c2-2,5-2.4,7.5-1.2c0.4,0.2,0.8,0,1.1-0.3l1.8-1.8c0.2-0.2,0.3-0.5,0.3-0.8
		c0-0.3-0.2-0.6-0.5-0.7C37.8,48.9,32.2,49.6,28.7,53.1L28.7,53.1z"/>
</g>
<g id="g9825" transform="translate(-74.123318,-7.4609904)">
	<g id="g9821" transform="translate(42.333011,90.667253)">
	</g>
</g>
<g id="g9889" transform="translate(-59.550549,66.716063)" inkscape:export-filename="../../Desktop/path9.png" inkscape:export-xdpi="888" inkscape:export-ydpi="888">
	<rect id="rect9885" x="0" y="0" class="st2" width="32" height="32"/>
	
		<linearGradient id="path9829_00000019654283810264827460000016283874380508156348_" gradientUnits="userSpaceOnUse" x1="-572.3925" y1="803.3641" x2="-571.6948" y2="804.061" gradientTransform="matrix(22.0004 0 0 -21.9995 12601.1221 17697.3125)">
		<stop  offset="0" style="stop-color:#FF8E00"/>
		<stop  offset="1" style="stop-color:#E12200"/>
	</linearGradient>
	
		<path id="path9829" inkscape:export-filename="../../Desktop/path9.png" inkscape:export-xdpi="2599.3848" inkscape:export-ydpi="2599.3848" sodipodi:nodetypes="ccccccccccccccccccccccccccc" style="fill:url(#path9829_00000019654283810264827460000016283874380508156348_);" d="
		M23.9,10.1l-1.8,1.8c-0.3,0.3-0.5,0.7-0.3,1.1c1.2,2.5,0.7,5.5-1.2,7.5c-2,2-5,2.4-7.5,1.2c-0.4-0.2-0.8,0-1.1,0.3l-1.8,1.8
		c-0.2,0.2-0.3,0.5-0.3,0.8c0,0.3,0.2,0.6,0.5,0.7c4.3,2.6,9.9,2,13.5-1.6c3.6-3.6,4.3-9.1,1.7-13.4c-0.1-0.3-0.4-0.4-0.7-0.5
		C24.4,9.8,24.1,9.9,23.9,10.1z M8.3,8.2C4.7,11.7,4,17.3,6.6,21.6c0.1,0.3,0.4,0.4,0.7,0.5c0.3,0,0.6-0.1,0.8-0.3l1.8-1.8
		c0.3-0.3,0.5-0.7,0.3-1.1c-1.2-2.5-0.7-5.5,1.2-7.5c2-2,5-2.4,7.5-1.2c0.4,0.2,0.8,0,1.1-0.3l1.8-1.8c0.2-0.2,0.3-0.5,0.3-0.8
		c0-0.3-0.2-0.6-0.5-0.7C17.3,4,11.8,4.7,8.3,8.2L8.3,8.2z"/>
</g>
<path id="path357" inkscape:export-filename="../../Desktop/path9.png" inkscape:export-xdpi="59.076923" inkscape:export-ydpi="59.076923" sodipodi:nodetypes="ccccccccccccccccccccccccccc" class="st9" d="
	M47,132l-2.1,2.1c-0.4,0.3-0.6,0.9-0.3,1.3c1.4,3,0.9,6.5-1.5,8.9c-2.3,2.3-5.9,2.9-8.9,1.4c-0.4-0.2-1,0-1.3,0.3l-2.2,2.2
	c-0.3,0.2-0.4,0.6-0.3,1c0,0.4,0.2,0.7,0.5,0.9c5.1,3.1,11.7,2.3,15.9-1.9c4.2-4.2,5-10.8,2-15.9c-0.2-0.3-0.5-0.5-0.8-0.6
	C47.6,131.6,47.2,131.7,47,132L47,132z M28.5,129.7c-4.3,4.2-5.1,10.8-2,15.9c0.2,0.3,0.5,0.5,0.8,0.6c0.4,0.1,0.7-0.1,1-0.3
	l2.1-2.1c0.4-0.3,0.6-0.9,0.4-1.3c-1.4-3-0.9-6.5,1.5-8.9c2.3-2.3,5.9-2.9,8.9-1.4c0.4,0.2,0.9,0,1.3-0.3l2.2-2.2
	c0.3-0.2,0.4-0.6,0.3-1c0-0.4-0.2-0.7-0.5-0.9C39.2,124.7,32.7,125.5,28.5,129.7L28.5,129.7z"/>
<path id="path408" inkscape:export-filename="../../Desktop/path9.png" inkscape:export-xdpi="177.23076" inkscape:export-ydpi="177.23076" sodipodi:nodetypes="ccccccccccccccccccccccccccc" class="st2" d="
	M-32.4,121l-2.1,2.1c-0.4,0.3-0.6,0.9-0.3,1.3c1.4,3,0.9,6.5-1.5,8.9c-2.3,2.3-5.9,2.9-8.9,1.4c-0.4-0.2-1,0-1.3,0.3l-2.2,2.2
	c-0.3,0.2-0.4,0.6-0.3,1c0,0.4,0.2,0.7,0.5,0.9c5.1,3.1,11.7,2.3,15.9-1.9c4.2-4.2,5-10.8,2-15.9c-0.2-0.3-0.5-0.5-0.8-0.6
	C-31.8,120.6-32.2,120.7-32.4,121z M-50.9,118.7c-4.3,4.2-5.1,10.8-2,15.9c0.2,0.3,0.5,0.5,0.8,0.6c0.4,0.1,0.7-0.1,1-0.3l2.1-2.1
	c0.4-0.3,0.6-0.9,0.4-1.3c-1.4-3-0.9-6.5,1.5-8.9c2.3-2.3,5.9-2.9,8.9-1.5c0.4,0.2,0.9,0,1.3-0.3l2.2-2.2c0.3-0.2,0.4-0.6,0.3-1
	c0-0.4-0.2-0.7-0.5-0.9C-40.2,113.7-46.7,114.5-50.9,118.7L-50.9,118.7z"/>
<g id="g763" transform="translate(-49.90362,15.786265)" inkscape:export-filename="../../Desktop/path9.png" inkscape:export-xdpi="768" inkscape:export-ydpi="768">
	<g id="g761" inkscape:export-filename="./g369.png" inkscape:export-xdpi="3733.2917" inkscape:export-ydpi="3733.2917">
		<path id="rect757" class="st2" d="M-47-8.7h22c2.8,0,5,2.2,5,5v22c0,2.8-2.2,5-5,5h-22c-2.8,0-5-2.2-5-5v-22
			C-52-6.5-49.8-8.7-47-8.7z"/>
		
			<linearGradient id="path759_00000160891652653507884680000001758032845272685748_" gradientUnits="userSpaceOnUse" x1="-586.1792" y1="849.689" x2="-585.4815" y2="850.3859" gradientTransform="matrix(26.0005 0 0 -25.9994 15195.7793 22107.7754)">
			<stop  offset="0" style="stop-color:#FF8E00"/>
			<stop  offset="1" style="stop-color:#E12200"/>
		</linearGradient>
		
			<path id="path759" inkscape:export-filename="../../Desktop/path9.png" inkscape:export-xdpi="2599.3848" inkscape:export-ydpi="2599.3848" sodipodi:nodetypes="ccccccccccccccccccccccccccc" style="fill:url(#path759_00000160891652653507884680000001758032845272685748_);" d="
			M-26.7,0.3l-2.1,2.1c-0.4,0.3-0.6,0.9-0.3,1.3c1.4,3,0.9,6.5-1.5,8.9c-2.3,2.3-5.9,2.9-8.9,1.4c-0.4-0.2-1,0-1.3,0.3l-2.2,2.2
			c-0.3,0.2-0.4,0.6-0.3,1c0,0.4,0.2,0.7,0.5,0.9c5.1,3.1,11.7,2.3,15.9-1.9c4.2-4.2,5-10.8,2-15.9C-25,0.3-25.4,0.1-25.7,0
			C-26.1,0-26.4,0.1-26.7,0.3L-26.7,0.3z M-45.2-2c-4.3,4.2-5.1,10.8-2,15.9c0.2,0.3,0.5,0.5,0.8,0.6c0.4,0,0.7-0.1,1-0.3l2.1-2.1
			c0.4-0.3,0.6-0.9,0.4-1.3c-1.4-3-0.9-6.5,1.5-8.9c2.3-2.3,5.9-2.9,8.9-1.4c0.4,0.2,0.9,0,1.3-0.3l2.2-2.2c0.3-0.2,0.4-0.6,0.3-1
			c0-0.4-0.2-0.7-0.5-0.9C-34.4-7-41-6.1-45.2-2L-45.2-2z"/>
	</g>
</g>
<linearGradient id="path2240_00000093881991131891853850000001984424497803917705_" gradientUnits="userSpaceOnUse" x1="-635.0033" y1="901.233" x2="-635.0033" y2="901.233" gradientTransform="matrix(26.0005 0 0 -25.9994 16443.3945 22533.9941)">
	<stop  offset="0" style="stop-color:#FF8E00"/>
	<stop  offset="1" style="stop-color:#E12200"/>
</linearGradient>
<path id="path2240" style="fill:url(#path2240_00000093881991131891853850000001984424497803917705_);" d="M-67-897.5"/>
<g id="g340" transform="translate(-53.94018,69.130411)" inkscape:export-filename="../../Desktop/path9.png" inkscape:export-xdpi="2496" inkscape:export-ydpi="2496">
	
		<g id="g369" transform="translate(-2.1094037,-5.1776263)" inkscape:export-filename="./g369.png" inkscape:export-xdpi="3733.2917" inkscape:export-ydpi="3733.2917">
		<path id="rect336" class="st2" d="M-45-8.7h18c3.9,0,7,3.1,7,7v18c0,3.9-3.1,7-7,7h-18c-3.9,0-7-3.1-7-7v-18
			C-52-5.6-48.9-8.7-45-8.7z"/>
		
			<linearGradient id="path338_00000071557589958504235270000000745278173648093610_" gradientUnits="userSpaceOnUse" x1="-580.0332" y1="801.5225" x2="-579.3355" y2="802.2194" gradientTransform="matrix(26.0005 0 0 -25.9994 15035.9814 20855.4766)">
			<stop  offset="0" style="stop-color:#FF8E00"/>
			<stop  offset="1" style="stop-color:#E12200"/>
		</linearGradient>
		
			<path id="path338" inkscape:export-filename="../../Desktop/path9.png" inkscape:export-xdpi="2599.3848" inkscape:export-ydpi="2599.3848" sodipodi:nodetypes="ccccccccccccccccccccccccccc" style="fill:url(#path338_00000071557589958504235270000000745278173648093610_);" d="
			M-26.7,0.3l-2.1,2.1c-0.4,0.3-0.6,0.9-0.3,1.3c1.4,3,0.9,6.5-1.5,8.9c-2.3,2.3-5.9,2.9-8.9,1.4c-0.4-0.2-1,0-1.3,0.3l-2.2,2.2
			c-0.3,0.2-0.4,0.6-0.3,1c0,0.4,0.2,0.7,0.5,0.9c5.1,3.1,11.7,2.3,15.9-1.9c4.2-4.2,5-10.8,2-15.9C-25,0.3-25.4,0.1-25.7,0
			C-26.1,0-26.4,0.1-26.7,0.3L-26.7,0.3z M-45.2-2c-4.3,4.2-5.1,10.8-2,15.9c0.2,0.3,0.5,0.5,0.8,0.6c0.4,0,0.7-0.1,1-0.3l2.1-2.1
			c0.4-0.3,0.6-0.9,0.4-1.3c-1.4-3-0.9-6.5,1.5-8.9c2.3-2.3,5.9-2.9,8.9-1.4c0.4,0.2,0.9,0,1.3-0.3l2.2-2.2c0.3-0.2,0.4-0.6,0.3-1
			c0-0.4-0.2-0.7-0.5-0.9C-34.4-7-41-6.1-45.2-2L-45.2-2z"/>
	</g>
</g>
</svg>
