<?xml version="1.0" encoding="utf-8"?>
<!-- Generator: Adobe Illustrator 28.0.0, SVG Export Plug-In . SVG Version: 6.00 Build 0)  -->
<svg version="1.1" id="Layer_1" xmlns="http://www.w3.org/2000/svg" xmlns:xlink="http://www.w3.org/1999/xlink" x="0px" y="0px"
	 viewBox="0 0 1000 286.6" style="enable-background:new 0 0 1000 286.6;" xml:space="preserve">
<style type="text/css">
	.st0{fill-rule:evenodd;clip-rule:evenodd;fill:#E5E5E5;}
	.st1{fill-rule:evenodd;clip-rule:evenodd;fill:#FF8E00;}
	.st2{fill-rule:evenodd;clip-rule:evenodd;fill:url(#SVGID_1_);}
</style>
<path class="st0" d="M0,0h1000v286.6H0V0z"/>
<g>
	<g transform="translate(-20 28.7)">
		<path class="st1" d="M438.4,187.4c0.3,0.5,0.5,0.9,0.5,1.4c0,0.6-0.3,1.1-0.8,1.5c-0.5,0.4-1,0.6-1.7,0.6c-0.4,0-0.8-0.1-1.2-0.3
			c-0.4-0.2-0.7-0.5-1-0.9l-5.3-8c-0.5-0.9-1.1-1.6-1.7-1.9c-0.7-0.3-1.5-0.5-2.4-0.5H421v9c0,0.8-0.2,1.4-0.7,1.9
			c-0.4,0.5-1,0.7-1.8,0.7c-0.8,0-1.4-0.2-1.9-0.7c-0.5-0.5-0.7-1.1-0.7-2V165c0-0.8,0.2-1.4,0.7-1.8c0.5-0.5,1.1-0.7,1.8-0.7h10
			c3.2,0,5.6,0.7,7.3,2.2c1.7,1.4,2.5,3.4,2.5,6.1c0,2.2-0.6,4-1.9,5.4c-1.2,1.4-2.9,2.3-5.2,2.7c0.8,0.2,1.5,0.5,2,1
			c0.7,0.5,1.3,1.1,1.8,2L438.4,187.4z M427.6,175.4c2,0,3.4-0.4,4.3-1.1c0.9-0.8,1.3-1.9,1.3-3.4c0-1.6-0.4-2.7-1.3-3.4
			c-0.9-0.7-2.4-1-4.3-1h-6.7v8.8L427.6,175.4z M455.3,191c-3.9,0-6.8-1-8.8-3s-3-4.9-3-8.8v-14.4c0-0.8,0.2-1.4,0.7-1.9
			c0.4-0.5,1-0.7,1.8-0.7c0.8,0,1.4,0.2,1.8,0.7c0.5,0.5,0.7,1.1,0.7,1.9v14.7c0,2.4,0.6,4.2,1.7,5.5c1.2,1.3,2.9,1.9,5,1.9
			c2.3,0,3.9-0.7,5-2c1.2-1.2,1.8-3,1.8-5.4v-14.7c0-0.8,0.2-1.4,0.7-1.9c0.5-0.5,1.1-0.7,1.8-0.7c0.8,0,1.4,0.2,1.9,0.7
			c0.4,0.5,0.6,1.1,0.6,1.9v14.4c0,3.8-1,6.7-3,8.8C462,190,459.1,191,455.3,191z M482.7,191c-2,0-3.9-0.3-5.8-0.8
			c-1.8-0.6-3.3-1.4-4.5-2.3c-0.6-0.4-0.9-1-0.9-1.9c0-0.5,0.2-1,0.5-1.4c0.3-0.5,0.7-0.7,1.2-0.7s1,0.2,1.6,0.6
			c1.2,0.8,2.4,1.4,3.6,1.8c1.3,0.4,2.7,0.6,4.2,0.6c2,0,3.5-0.3,4.5-1s1.5-1.7,1.5-3c0-1.1-0.5-1.9-1.4-2.4c-1-0.5-2.6-1.1-4.9-1.6
			c-2.3-0.5-4.2-1-5.7-1.7c-1.5-0.7-2.6-1.5-3.3-2.6c-0.7-1-1.1-2.3-1.1-4c0-1.6,0.5-3.1,1.4-4.4c0.9-1.3,2.2-2.3,3.8-3
			c1.7-0.7,3.6-1.1,5.7-1.1c3.8,0,6.9,1,9.3,3c0.3,0.3,0.6,0.6,0.7,0.9c0.2,0.3,0.3,0.6,0.3,1c0,0.6-0.2,1.1-0.6,1.5
			c-0.3,0.4-0.6,0.6-1.1,0.6l-0.8-0.1l-0.9-0.5c-1.1-0.8-2.1-1.4-3.2-1.7c-1-0.4-2.2-0.6-3.7-0.6c-1.8,0-3.2,0.4-4.3,1.1
			c-1.1,0.7-1.6,1.7-1.6,3c0,1.1,0.5,2,1.4,2.6c0.9,0.5,2.5,1.1,4.8,1.6c2.3,0.5,4.2,1.1,5.7,1.8c1.5,0.7,2.7,1.5,3.4,2.5
			c0.8,1,1.2,2.3,1.2,3.8c0,1.7-0.5,3.1-1.4,4.4c-0.9,1.3-2.2,2.3-3.9,3C486.8,190.7,484.9,191,482.7,191L482.7,191z M507.1,190.8
			c-0.8,0-1.4-0.2-1.9-0.7s-0.7-1.1-0.7-1.8v-21.6h-7.3c-1.6,0-2.4-0.7-2.4-2.2s0.8-2.1,2.4-2H517c1.6,0,2.4,0.7,2.4,2
			s-0.8,2.1-2.4,2.2h-7.3v21.6c0,0.7-0.2,1.3-0.7,1.8S507.9,190.8,507.1,190.8z M524.9,190.6c-0.8,0-1.4-0.2-1.9-0.6
			c-0.4-0.5-0.6-1.1-0.6-1.8v-23.3c0-0.8,0.2-1.4,0.6-1.8c0.5-0.5,1.1-0.7,1.9-0.7h8c4.5,0,8.1,1.2,10.6,3.7
			c2.6,2.5,3.9,5.9,3.9,10.4c0,4.5-1.3,7.9-3.9,10.4c-2.5,2.5-6.1,3.7-10.7,3.7L524.9,190.6z M532.5,186.4c6.5,0,9.7-3.3,9.7-9.9
			c0-6.6-3.2-9.9-9.7-9.9h-5v19.8L532.5,186.4z M555,190.6c-0.7,0-1.3-0.2-1.8-0.6c-0.4-0.5-0.6-1.1-0.6-1.8v-23.3
			c0-0.8,0.2-1.4,0.6-1.8c0.5-0.5,1.1-0.7,1.8-0.7h14.5c0.7,0,1.3,0.2,1.8,0.5c0.4,0.4,0.6,0.9,0.6,1.5c0,0.7-0.2,1.2-0.6,1.6
			c-0.5,0.3-1.1,0.5-1.8,0.5h-11.9v7.8h11c0.8,0,1.4,0.2,1.9,0.5c0.4,0.3,0.6,0.8,0.6,1.5c0,0.7-0.2,1.2-0.6,1.5
			c-0.4,0.3-1,0.5-1.8,0.5h-11v8.2h11.8c0.7,0,1.3,0.2,1.8,0.6c0.4,0.3,0.6,0.8,0.6,1.5c0,0.7-0.2,1.2-0.6,1.5
			c-0.4,0.3-1,0.5-1.8,0.5H555z M585.5,191c-2.1,0-4-0.3-5.9-0.8c-1.8-0.6-3.3-1.4-4.4-2.3c-0.7-0.4-1-1-1-1.9c0-0.5,0.2-1,0.6-1.4
			c0.3-0.5,0.7-0.7,1.2-0.7s1,0.2,1.6,0.6c1.1,0.8,2.3,1.4,3.6,1.8c1.3,0.4,2.7,0.6,4.2,0.6c1.9,0,3.4-0.3,4.4-1
			c1.1-0.7,1.6-1.7,1.6-3c0-1.1-0.5-1.9-1.5-2.4c-0.9-0.5-2.5-1.1-4.8-1.6c-2.3-0.5-4.2-1-5.7-1.7c-1.5-0.7-2.6-1.5-3.4-2.6
			c-0.7-1-1-2.3-1-4c0-1.6,0.4-3.1,1.3-4.4c0.9-1.3,2.2-2.3,3.9-3c1.7-0.7,3.5-1.1,5.6-1.1c3.9,0,7,1,9.4,3c0.3,0.3,0.6,0.6,0.7,0.9
			c0.1,0.3,0.2,0.6,0.2,1c0,0.6-0.2,1.1-0.5,1.5c-0.3,0.4-0.7,0.6-1.2,0.6l-0.7-0.1l-0.9-0.5c-1.1-0.8-2.1-1.4-3.2-1.7
			c-1-0.4-2.3-0.6-3.8-0.6c-1.8,0-3.2,0.4-4.3,1.1c-1,0.7-1.5,1.7-1.5,3c0,1.1,0.5,2,1.4,2.6c0.9,0.5,2.5,1.1,4.7,1.6
			c2.4,0.5,4.3,1.1,5.8,1.8c1.5,0.7,2.6,1.5,3.4,2.5s1.2,2.3,1.2,3.8c0,1.7-0.5,3.1-1.4,4.4c-0.9,1.3-2.2,2.3-3.9,3
			C589.5,190.7,587.6,191,585.5,191L585.5,191z M623.1,186.7c0.5,0.5,0.8,1.1,0.8,1.8c0,0.6-0.2,1.1-0.7,1.6s-1,0.7-1.6,0.7
			c-0.7,0-1.3-0.3-1.9-0.9l-13.3-12.4v10.8c0,0.7-0.2,1.3-0.7,1.8c-0.5,0.5-1.1,0.8-1.9,0.8s-1.4-0.3-1.9-0.8
			c-0.5-0.5-0.7-1.1-0.7-1.8v-23.5c0-0.8,0.2-1.4,0.7-1.9s1.1-0.7,1.9-0.7s1.4,0.2,1.9,0.7s0.7,1.1,0.7,1.9V175l12.9-12.1
			c0.5-0.5,1-0.7,1.6-0.7c0.7,0,1.2,0.2,1.6,0.7c0.5,0.5,0.7,1,0.7,1.6s-0.3,1.2-0.8,1.7l-10.7,9.8L623.1,186.7z"/>
	</g>
	<g>
		<path class="st1" d="M408.3,239.9c0.2-0.3,0.4-0.4,0.7-0.4c0.3,0,0.6,0.1,0.8,0.3c0.2,0.3,0.3,0.5,0.3,0.8s-0.1,0.5-0.3,0.7
			l-5.3,6.7v6.5c0,0.4-0.1,0.7-0.4,1c-0.2,0.1-0.5,0.2-0.8,0.2c-0.3,0-0.6-0.1-0.8-0.3c-0.2-0.2-0.3-0.5-0.3-0.9V248l-5.4-6.7
			c-0.2-0.2-0.3-0.4-0.3-0.7c0-0.3,0.1-0.6,0.3-0.8c0.3-0.2,0.5-0.3,0.8-0.3c0.3,0,0.6,0.1,0.8,0.4l5,6.2L408.3,239.9z M414.9,255.8
			c-1.1,0-2-0.3-2.9-0.8c-0.8-0.5-1.4-1.1-1.9-2c-0.4-0.9-0.6-1.9-0.6-3s0.2-2.1,0.6-3c0.5-0.9,1.1-1.5,2-2c0.8-0.5,1.7-0.7,2.8-0.7
			s2,0.2,2.8,0.7c0.9,0.5,1.5,1.1,2,2c0.4,0.9,0.6,1.9,0.6,3c0,1.1-0.2,2.1-0.6,3c-0.5,0.9-1.1,1.5-2,2
			C416.9,255.5,416,255.8,414.9,255.8z M414.9,253.9c1,0,1.8-0.3,2.3-1c0.5-0.7,0.8-1.6,0.8-2.9s-0.3-2.2-0.8-2.9
			c-0.5-0.7-1.3-1-2.3-1c-1,0-1.8,0.3-2.3,1c-0.5,0.7-0.8,1.7-0.8,3c0,1.2,0.3,2.1,0.8,2.8C413.1,253.6,413.9,253.9,414.9,253.9
			L414.9,253.9z M431.4,244.3c0.4,0,0.7,0.1,0.9,0.3c0.2,0.2,0.3,0.5,0.3,0.8v9.2c0,0.3-0.1,0.6-0.3,0.8c-0.3,0.2-0.6,0.3-0.9,0.3
			c-0.3,0-0.6-0.1-0.8-0.3c-0.1-0.2-0.2-0.4-0.2-0.7v-0.9c-0.4,0.7-0.9,1.2-1.5,1.5c-0.7,0.3-1.3,0.5-2,0.5c-2.7,0-4-1.5-4-4.5v-5.8
			c0-0.3,0.1-0.6,0.2-0.8c0.2-0.2,0.5-0.3,0.9-0.3c0.3,0,0.6,0.1,0.8,0.3c0.2,0.2,0.3,0.5,0.3,0.8v5.9c0,0.9,0.2,1.5,0.6,2
			c0.3,0.4,0.9,0.6,1.6,0.6c0.9,0,1.7-0.3,2.2-0.9c0.5-0.5,0.8-1.3,0.8-2.3v-5.3c0-0.3,0.1-0.6,0.3-0.8c0.2-0.2,0.5-0.3,0.8-0.3
			L431.4,244.3z M441.6,244.3c0.7,0,1,0.3,1,1c0,0.3-0.1,0.5-0.2,0.7c-0.1,0.1-0.4,0.2-0.9,0.3h-0.6c-1,0.1-1.7,0.5-2.2,1
			c-0.4,0.7-0.6,1.4-0.6,2.1v5.2c0,0.4-0.1,0.7-0.4,0.8c-0.2,0.2-0.5,0.3-0.8,0.3c-0.3,0-0.6-0.1-0.8-0.3c-0.2-0.1-0.3-0.4-0.3-0.8
			v-9.1c0-0.3,0.1-0.6,0.3-0.8c0.2-0.2,0.5-0.3,0.8-0.3c0.3,0,0.6,0.1,0.8,0.3c0.2,0.2,0.3,0.5,0.3,0.8v1c0.3-0.7,0.7-1.2,1.3-1.5
			c0.6-0.3,1.3-0.5,2-0.6L441.6,244.3z M455.9,244.3c0.7,0,1,0.3,1,1c0,0.3-0.1,0.5-0.2,0.7l-0.9,0.3h-0.7c-0.9,0.1-1.6,0.5-2,1
			c-0.5,0.7-0.8,1.4-0.8,2.1v5.2c0,0.4-0.1,0.7-0.3,0.8c-0.2,0.2-0.5,0.3-0.8,0.3c-0.3,0-0.6-0.1-0.8-0.3c-0.3-0.1-0.4-0.4-0.4-0.8
			v-9.1c0-0.3,0.1-0.6,0.4-0.8c0.2-0.2,0.5-0.3,0.8-0.3c0.3,0,0.6,0.1,0.8,0.3c0.2,0.2,0.3,0.5,0.3,0.8v1c0.3-0.7,0.7-1.2,1.3-1.5
			c0.5-0.3,1.2-0.5,2-0.6L455.9,244.3z M466.8,252.8c0.2,0,0.4,0.1,0.5,0.3c0.1,0.1,0.2,0.3,0.2,0.6c0,0.4-0.3,0.8-0.8,1.1
			c-0.5,0.3-1.1,0.6-1.8,0.7c-0.6,0.2-1.2,0.3-1.7,0.3c-1.8,0-3.2-0.5-4.2-1.6c-1-1-1.5-2.4-1.5-4.2c0-1.1,0.2-2.1,0.6-3
			c0.5-0.9,1.1-1.5,2-2c0.7-0.5,1.6-0.7,2.7-0.7c1.5,0,2.6,0.5,3.5,1.4c0.9,0.9,1.3,2.2,1.3,3.8c0,0.7-0.3,1-0.8,1h-7
			c0.1,2.3,1.2,3.5,3.3,3.5c0.6,0,1.1-0.1,1.5-0.3l1.3-0.6l0.4-0.1L466.8,252.8z M462.8,245.9c-0.9,0-1.5,0.3-2,0.9
			c-0.6,0.5-0.9,1.3-1,2.3h5.8c0-1-0.3-1.8-0.8-2.3C464.3,246.2,463.7,245.9,462.8,245.9z M482.8,244.3c2.5,0,3.7,1.5,3.7,4.4v6
			c0,0.3-0.1,0.5-0.3,0.7c-0.2,0.2-0.5,0.3-0.8,0.3c-0.3,0-0.6-0.1-0.9-0.3c-0.2-0.2-0.3-0.5-0.3-0.8v-5.9c0-0.9-0.2-1.5-0.5-2
			c-0.3-0.4-0.8-0.6-1.5-0.6c-0.9,0-1.5,0.3-2,0.9c-0.5,0.5-0.7,1.3-0.7,2.3v5.3c0,0.3-0.1,0.6-0.3,0.8c-0.3,0.2-0.6,0.3-0.9,0.3
			c-0.3,0-0.6-0.1-0.8-0.3c-0.2-0.2-0.3-0.5-0.3-0.8v-5.9c0-0.9-0.2-1.5-0.5-2c-0.3-0.4-0.9-0.6-1.6-0.6c-0.8,0-1.5,0.3-2,0.9
			c-0.5,0.5-0.7,1.3-0.7,2.3v5.3c0,0.3-0.1,0.6-0.3,0.8c-0.2,0.2-0.5,0.3-0.8,0.3c-0.3,0-0.6-0.1-0.9-0.3c-0.2-0.2-0.3-0.5-0.3-0.8
			v-9.1c0-0.3,0.1-0.6,0.3-0.8c0.3-0.2,0.6-0.3,0.9-0.3c0.3,0,0.5,0.1,0.7,0.3c0.3,0.2,0.4,0.5,0.4,0.8v0.8c0.3-0.7,0.8-1.1,1.3-1.4
			c0.7-0.3,1.3-0.5,2-0.5c0.9,0,1.6,0.2,2.2,0.5c0.5,0.3,0.9,0.9,1.2,1.6c0.3-0.7,0.8-1.2,1.5-1.5c0.7-0.4,1.4-0.6,2.2-0.6
			L482.8,244.3z M494.5,255.8c-1.1,0-2.1-0.3-3-0.8c-0.8-0.5-1.4-1.1-1.8-2c-0.5-0.9-0.7-1.9-0.7-3s0.2-2.1,0.7-3
			c0.4-0.9,1-1.5,1.9-2c0.8-0.5,1.8-0.7,2.9-0.7s2.1,0.2,2.8,0.7c0.9,0.5,1.5,1.1,2,2c0.4,0.9,0.6,1.9,0.6,3s-0.2,2.1-0.7,3
			c-0.4,0.9-1,1.5-1.9,2C496.5,255.5,495.6,255.8,494.5,255.8z M494.5,253.9c1,0,1.8-0.3,2.3-1c0.5-0.7,0.8-1.6,0.8-2.9
			s-0.3-2.2-0.8-2.9c-0.6-0.7-1.4-1-2.3-1c-0.9,0-1.7,0.3-2.4,1c-0.5,0.7-0.8,1.7-0.8,3c0,1.2,0.3,2.1,0.8,2.8
			C492.6,253.6,493.4,253.9,494.5,253.9L494.5,253.9z M507.8,253.9c0.3,0.1,0.6,0.2,0.7,0.3s0.2,0.3,0.2,0.6c0,0.3-0.1,0.6-0.3,0.7
			c-0.3,0.2-0.6,0.3-1,0.2h-0.7c-1.2-0.1-2.1-0.5-2.7-1.1c-0.7-0.7-1-1.7-1-3v-5.3h-1.3c-0.7,0-1-0.3-1-0.9c0-0.3,0.1-0.5,0.3-0.6
			c0.2-0.2,0.4-0.3,0.7-0.3h1.4v-2.3c0-0.3,0.1-0.6,0.3-0.8c0.2-0.2,0.5-0.3,0.8-0.3c0.3,0,0.6,0.1,0.9,0.3c0.2,0.2,0.3,0.5,0.3,0.8
			v2.3h2.2c0.3,0,0.6,0.1,0.7,0.3c0.2,0.1,0.3,0.3,0.3,0.6s-0.1,0.5-0.3,0.7c-0.1,0.1-0.4,0.2-0.7,0.2h-2.1v5.5
			c0,0.7,0.1,1.2,0.4,1.6c0.3,0.3,0.8,0.4,1.4,0.5H507.8z M519,252.9c0.3,0,0.5,0.1,0.6,0.2c0.1,0.1,0.2,0.3,0.2,0.6
			c0,0.4-0.3,0.8-0.8,1.1c-0.5,0.3-1.1,0.6-1.8,0.7c-0.7,0.2-1.3,0.3-1.8,0.3c-1.7,0-3.1-0.5-4.1-1.6c-1-1-1.5-2.4-1.5-4.2
			c0-1.1,0.2-2.1,0.6-3c0.5-0.9,1.1-1.5,1.9-2c0.8-0.5,1.7-0.7,2.8-0.7c1.5,0,2.6,0.5,3.5,1.4c0.9,0.9,1.3,2.2,1.3,3.8
			c0,0.7-0.3,1-0.9,1h-7c0.2,2.3,1.3,3.5,3.4,3.5c0.6,0,1.1-0.1,1.5-0.3l1.3-0.6l0.3-0.1l0.5-0.2V252.9z M515.1,245.9
			c-0.9,0-1.6,0.3-2.1,0.9c-0.5,0.5-0.9,1.3-1,2.3h5.9c0-1-0.3-1.8-0.8-2.3C516.6,246.2,516,245.9,515.1,245.9z M537.4,239.5
			c0.3,0,0.6,0.1,0.8,0.3c0.3,0.2,0.4,0.5,0.4,0.8v14c0,0.3-0.1,0.6-0.4,0.8c-0.2,0.2-0.5,0.3-0.8,0.3s-0.6-0.1-0.8-0.3
			c-0.2-0.2-0.3-0.5-0.3-0.8v-1c-0.3,0.7-0.8,1.2-1.5,1.6s-1.4,0.6-2.2,0.6c-0.9,0-1.8-0.3-2.5-0.8c-0.7-0.5-1.3-1.1-1.8-2
			c-0.4-0.9-0.6-1.9-0.6-3c0-1.2,0.2-2.2,0.6-3c0.5-0.9,1.1-1.5,1.8-2c0.7-0.5,1.5-0.7,2.5-0.7c0.9,0,1.6,0.2,2.2,0.5
			c0.7,0.3,1.2,0.8,1.5,1.5v-5.8c0-0.3,0.1-0.5,0.3-0.7C536.8,239.6,537.1,239.5,537.4,239.5z M533.2,253.9c1,0,1.8-0.3,2.3-1
			c0.5-0.7,0.8-1.6,0.8-2.9s-0.3-2.2-0.8-2.9c-0.5-0.7-1.3-1-2.3-1c-1,0-1.8,0.3-2.3,1c-0.6,0.7-0.9,1.6-0.9,2.9
			c0,1.2,0.3,2.2,0.9,2.9C531.4,253.6,532.2,253.9,533.2,253.9z M550.4,252.9c0.2,0,0.4,0.1,0.5,0.2s0.2,0.3,0.2,0.6
			c0,0.4-0.3,0.8-0.8,1.1c-0.5,0.3-1.1,0.6-1.7,0.7c-0.7,0.2-1.3,0.3-1.8,0.3c-1.7,0-3.1-0.5-4.2-1.6c-1-1-1.5-2.4-1.5-4.2
			c0-1.1,0.2-2.1,0.7-3s1.1-1.5,1.9-2s1.7-0.7,2.7-0.7c1.5,0,2.6,0.5,3.5,1.4c0.9,0.9,1.3,2.2,1.3,3.8c0,0.7-0.3,1-0.8,1h-7
			c0.1,2.3,1.3,3.5,3.4,3.5c0.5,0,1-0.1,1.4-0.3c0.5-0.1,0.9-0.3,1.3-0.6l0.4-0.1l0.5-0.2L550.4,252.9z M546.4,245.9
			c-0.8,0-1.5,0.3-2,0.9c-0.5,0.5-0.9,1.3-1,2.3h5.9c-0.1-1-0.3-1.8-0.8-2.3c-0.5-0.6-1.1-0.9-2-0.9H546.4z M557.6,255.8
			c-1.5,0-2.8-0.3-3.8-1c-0.3-0.1-0.5-0.3-0.6-0.5l-0.1-0.6c0-0.3,0.1-0.5,0.2-0.6c0.1-0.2,0.3-0.3,0.5-0.3c0.2,0,0.5,0.1,1,0.4
			l1.2,0.6c0.5,0.1,1,0.2,1.7,0.2c0.7,0,1.2-0.1,1.7-0.4c0.4-0.3,0.6-0.6,0.6-1c0-0.3-0.1-0.6-0.3-0.8c-0.1-0.2-0.4-0.4-0.8-0.5
			l-1.7-0.5c-1.3-0.3-2.3-0.6-3-1.1c-0.5-0.5-0.8-1.2-0.8-2c0-0.7,0.2-1.3,0.6-1.8s0.9-0.9,1.6-1.2s1.4-0.4,2.2-0.4
			c0.7,0,1.3,0.1,1.8,0.2c0.6,0.1,1.1,0.4,1.5,0.7c0.5,0.3,0.8,0.7,0.8,1.1c0,0.3-0.1,0.5-0.3,0.7c-0.1,0.1-0.3,0.2-0.5,0.2h-0.4
			c-0.1,0-0.3-0.1-0.5-0.4l-1.2-0.5c-0.3-0.1-0.8-0.2-1.3-0.2c-0.7,0-1.2,0.1-1.5,0.4c-0.4,0.3-0.6,0.6-0.6,1c0,0.5,0.2,0.8,0.5,1
			c0.4,0.3,1.1,0.5,2,0.7c1.1,0.2,1.9,0.5,2.4,0.8c0.6,0.3,1,0.6,1.2,1c0.3,0.4,0.4,0.9,0.4,1.5c0,1-0.4,1.8-1.2,2.4
			S559,255.8,557.6,255.8L557.6,255.8z M574,253.8c0.3,0.2,0.4,0.5,0.4,0.8c0,0.3-0.1,0.6-0.3,0.8s-0.4,0.3-0.7,0.3
			c-0.3,0-0.6-0.1-0.8-0.3l-5.6-5v4.2c0,0.3-0.1,0.6-0.4,0.8c-0.2,0.2-0.5,0.3-0.8,0.3c-0.3,0-0.6-0.1-0.8-0.3s-0.3-0.5-0.3-0.8v-14
			c0-0.3,0.1-0.6,0.3-0.8s0.5-0.3,0.8-0.3c0.3,0,0.6,0.1,0.8,0.3c0.3,0.2,0.4,0.5,0.4,0.8v8.9l5.1-4.8c0.3-0.3,0.5-0.4,0.8-0.4
			c0.3,0,0.5,0.1,0.7,0.3c0.2,0.3,0.3,0.5,0.3,0.8s-0.1,0.5-0.3,0.8l-4,3.7L574,253.8z M581.7,254c0.3,0,0.6,0.1,0.7,0.2
			c0.2,0.1,0.3,0.3,0.3,0.6c0,0.3-0.1,0.6-0.4,0.7c-0.2,0.2-0.5,0.3-1,0.2h-0.6c-1.3-0.1-2.2-0.5-2.8-1.1c-0.6-0.7-0.9-1.7-0.9-3
			v-5.3h-1.3c-0.7,0-1-0.3-1-0.9c0-0.3,0.1-0.5,0.2-0.6c0.2-0.2,0.5-0.3,0.8-0.3h1.3v-2.3c0-0.3,0.1-0.6,0.3-0.8s0.5-0.3,0.9-0.3
			c0.3,0,0.6,0.1,0.8,0.3c0.2,0.2,0.3,0.5,0.3,0.8v2.3h2.3c0.3,0,0.5,0.1,0.7,0.3c0.2,0.1,0.3,0.3,0.3,0.6c0,0.3-0.1,0.5-0.3,0.7
			c-0.2,0.1-0.4,0.2-0.7,0.2h-2.3v5.5c0,0.7,0.1,1.2,0.4,1.6c0.3,0.3,0.8,0.4,1.4,0.5L581.7,254z M589.1,255.8c-1.1,0-2-0.3-2.8-0.8
			c-0.9-0.5-1.5-1.1-2-2c-0.4-0.9-0.6-1.9-0.6-3s0.2-2.1,0.6-3c0.5-0.9,1.1-1.5,2-2c0.8-0.5,1.7-0.7,2.8-0.7s2,0.2,2.9,0.7
			c0.8,0.5,1.4,1.1,1.9,2s0.7,1.9,0.7,3s-0.2,2.1-0.7,3s-1.1,1.5-2,2C591.2,255.5,590.2,255.8,589.1,255.8L589.1,255.8z
			 M589.1,253.9c1,0,1.8-0.3,2.3-1c0.6-0.7,0.9-1.6,0.9-2.9s-0.3-2.2-0.9-2.9c-0.5-0.7-1.3-1-2.3-1c-1,0-1.8,0.3-2.3,1
			c-0.5,0.7-0.8,1.7-0.8,3c0,1.2,0.3,2.1,0.8,2.8C587.3,253.6,588.1,253.9,589.1,253.9L589.1,253.9z M603.1,244.3
			c0.9,0,1.8,0.2,2.5,0.7c0.7,0.5,1.3,1.1,1.7,2c0.5,0.9,0.7,1.9,0.7,3c0,1.2-0.2,2.2-0.6,3c-0.4,0.8-1,1.5-1.8,2
			c-0.7,0.5-1.6,0.8-2.6,0.8c-0.8,0-1.5-0.2-2.2-0.6c-0.6-0.3-1.1-0.8-1.4-1.5v5c0,0.3-0.1,0.6-0.3,0.8c-0.2,0.2-0.5,0.3-0.8,0.3
			s-0.6-0.1-0.9-0.3c-0.2-0.2-0.3-0.5-0.3-0.8v-13.3c0-0.3,0.1-0.6,0.3-0.8s0.5-0.3,0.9-0.3c0.3,0,0.6,0.1,0.8,0.3
			c0.2,0.2,0.3,0.5,0.3,0.8v1c0.3-0.7,0.8-1.2,1.4-1.6C601.5,244.5,602.2,244.3,603.1,244.3L603.1,244.3z M602.5,253.9
			c1,0,1.8-0.3,2.3-1c0.5-0.7,0.8-1.6,0.8-2.8c0-1.3-0.3-2.3-0.8-3c-0.5-0.7-1.3-1-2.3-1s-1.8,0.3-2.3,1c-0.5,0.7-0.8,1.7-0.8,3
			c0,1.2,0.3,2.1,0.8,2.8C600.7,253.6,601.5,253.9,602.5,253.9z"/>
	</g>
</g>
<linearGradient id="SVGID_1_" gradientUnits="userSpaceOnUse" x1="-454.0174" y1="678.8875" x2="-453.3174" y2="679.5875" gradientTransform="matrix(94.0017 0 0 -93.9977 43140.7969 63950.6133)">
	<stop  offset="0" style="stop-color:#FF8E00"/>
	<stop  offset="1" style="stop-color:#E12200"/>
</linearGradient>
<path class="st2" d="M533.7,74.2l-7.7,7.6c-1.4,1.3-2,3.2-1.3,4.9c5.2,10.7,3.2,23.5-5.2,32c-8.5,8.3-21.3,10.4-32,5.2
	c-1.7-0.7-3.5,0-4.7,1.2l-7.9,7.8c-1.6,1.7-1.6,4.3,0.1,5.9c0.2,0.2,0.5,0.4,0.7,0.6c22.3,13.4,51.1,6.2,64.5-16.1
	c8.9-14.8,8.9-33.3,0.1-48.2c-0.6-1.1-1.8-1.8-3-2c-1.3-0.2-2.6,0.1-3.6,1V74.2z M467,65.8c-15.4,15.2-18.4,38.9-7.3,57.5
	c1.2,2,3.7,2.7,5.7,1.6c0.3-0.2,0.6-0.4,0.9-0.7l7.7-7.6c1.4-1.3,2-3.2,1.3-5c-5.2-10.7-3.2-23.5,5.2-32c8.5-8.3,21.3-10.4,32-5.2
	c1.6,0.7,3.5,0.1,4.7-1l7.9-8c1.6-1.7,1.6-4.3-0.1-5.9c-0.2-0.2-0.5-0.4-0.7-0.6c-18.5-11.1-42.2-8.2-57.4,7.1L467,65.8z"/>
</svg>
