<?xml version="1.0" encoding="utf-8"?>
<!-- Generator: Adobe Illustrator 28.0.0, SVG Export Plug-In . SVG Version: 6.00 Build 0)  -->
<svg version="1.1" id="Layer_1" xmlns="http://www.w3.org/2000/svg" xmlns:xlink="http://www.w3.org/1999/xlink" x="0px" y="0px"
	 viewBox="0 0 113.7 26" style="enable-background:new 0 0 113.7 26;" xml:space="preserve">
<style type="text/css">
	.st0{fill:url(#SVGID_1_);}
</style>
<path d="M38.2,9.4c0.7,0,1,0.2,1,0.9c0,0.3-0.1,0.5-0.2,0.7c-0.2,0.2-0.4,0.2-0.8,0.3l-0.6,0.1c-0.9,0.1-1.6,0.4-2,0.9
	c-0.4,0.5-0.6,1.2-0.6,2v4.9c0,0.3-0.1,0.6-0.3,0.8c-0.2,0.2-0.5,0.3-0.8,0.3c-0.3,0-0.6-0.1-0.8-0.3c-0.2-0.2-0.3-0.4-0.3-0.8v-8.7
	c0-0.3,0.1-0.6,0.3-0.7c0.2-0.2,0.5-0.3,0.8-0.3c0.3,0,0.5,0.1,0.7,0.3c0.2,0.2,0.3,0.4,0.3,0.7v1c0.3-0.6,0.7-1.1,1.2-1.4
	c0.5-0.3,1.2-0.5,1.8-0.6L38.2,9.4z M48.6,9.4c0.3,0,0.6,0.1,0.8,0.3c0.2,0.2,0.3,0.4,0.3,0.8v8.7c0,0.3-0.1,0.5-0.3,0.7
	c-0.2,0.2-0.5,0.3-0.8,0.3c-0.3,0-0.5-0.1-0.7-0.3c-0.2-0.2-0.3-0.4-0.3-0.7v-0.8c-0.3,0.6-0.8,1.1-1.4,1.4
	c-0.6,0.3-1.2,0.5-1.9,0.5c-2.5,0-3.8-1.4-3.8-4.2v-5.5c0-0.3,0.1-0.6,0.3-0.8c0.2-0.2,0.5-0.3,0.8-0.3c0.3,0,0.6,0.1,0.8,0.3
	c0.2,0.2,0.3,0.4,0.3,0.8v5.5c0,0.8,0.2,1.5,0.5,1.9c0.3,0.4,0.9,0.6,1.6,0.6c0.8,0,1.5-0.3,2-0.8c0.5-0.5,0.8-1.3,0.8-2.2v-5
	c0-0.3,0.1-0.6,0.3-0.7C48,9.5,48.2,9.4,48.6,9.4L48.6,9.4z M56.3,20.1c-1.5,0-2.6-0.3-3.6-0.9c-0.3-0.2-0.4-0.3-0.6-0.5
	C52,18.6,52,18.4,52,18.2c0-0.2,0.1-0.4,0.2-0.6c0.1-0.2,0.3-0.2,0.5-0.2c0.2,0,0.5,0.1,0.9,0.3c0.4,0.2,0.8,0.4,1.2,0.6
	c0.4,0.1,0.9,0.2,1.5,0.2c0.7,0,1.2-0.1,1.6-0.4c0.4-0.2,0.6-0.6,0.6-1c0-0.3-0.1-0.5-0.2-0.7c-0.1-0.2-0.4-0.3-0.8-0.4
	c-0.4-0.1-0.9-0.3-1.6-0.4c-1.3-0.3-2.2-0.6-2.7-1.1c-0.5-0.5-0.8-1.1-0.8-1.9c0-0.6,0.2-1.2,0.5-1.6c0.4-0.5,0.8-0.9,1.5-1.2
	c0.6-0.3,1.3-0.4,2.1-0.4c0.6,0,1.1,0.1,1.7,0.2c0.5,0.1,1,0.4,1.4,0.6c0.5,0.3,0.7,0.7,0.7,1.1c0,0.2-0.1,0.4-0.2,0.6
	c-0.1,0.2-0.3,0.2-0.5,0.2c-0.1,0-0.3,0-0.4-0.1c-0.1-0.1-0.3-0.1-0.5-0.3c-0.4-0.2-0.7-0.4-1.1-0.5c-0.3-0.1-0.7-0.2-1.2-0.2
	c-0.6,0-1.1,0.1-1.5,0.4c-0.4,0.3-0.5,0.6-0.5,1c0,0.4,0.2,0.7,0.5,0.9c0.3,0.2,1,0.4,1.9,0.6c1,0.2,1.7,0.4,2.2,0.7
	c0.5,0.3,0.9,0.6,1.2,1c0.2,0.4,0.4,0.8,0.4,1.4c0,0.9-0.4,1.7-1.2,2.2C58.6,19.9,57.6,20.1,56.3,20.1z M67.9,18.4
	c0.3,0,0.5,0.1,0.7,0.3c0.1,0.1,0.2,0.3,0.2,0.6c0,0.3-0.1,0.5-0.3,0.7c-0.2,0.1-0.5,0.2-1,0.2l-0.6,0c-1.2-0.1-2-0.4-2.6-1
	c-0.6-0.6-0.9-1.5-0.9-2.8v-5h-1.3c-0.6,0-0.9-0.3-0.9-0.8c0-0.3,0.1-0.5,0.2-0.6c0.2-0.2,0.4-0.2,0.7-0.2h1.3V7.4
	c0-0.3,0.1-0.6,0.3-0.8c0.2-0.2,0.5-0.3,0.8-0.3c0.3,0,0.6,0.1,0.8,0.3c0.2,0.2,0.3,0.4,0.3,0.8v2.2h2.1c0.3,0,0.5,0.1,0.7,0.2
	c0.2,0.1,0.3,0.3,0.3,0.6c0,0.3-0.1,0.5-0.3,0.6c-0.2,0.1-0.4,0.2-0.7,0.2h-2.1v5.2c0,0.7,0.1,1.2,0.4,1.5c0.3,0.3,0.7,0.5,1.3,0.5
	L67.9,18.4z M78.9,4.8c0.3,0,0.6,0.1,0.8,0.3c0.2,0.2,0.3,0.4,0.3,0.7V19c0,0.3-0.1,0.6-0.3,0.8c-0.2,0.2-0.4,0.3-0.8,0.3
	c-0.3,0-0.6-0.1-0.8-0.3c-0.2-0.2-0.3-0.4-0.3-0.8v-0.9c-0.3,0.6-0.8,1.1-1.4,1.5c-0.6,0.3-1.3,0.5-2.1,0.5c-0.9,0-1.7-0.2-2.4-0.7
	c-0.7-0.5-1.2-1.1-1.6-1.9c-0.4-0.8-0.6-1.8-0.6-2.8c0-1.1,0.2-2,0.6-2.8c0.4-0.8,0.9-1.4,1.6-1.9c0.7-0.4,1.5-0.7,2.4-0.7
	c0.8,0,1.5,0.2,2,0.5c0.6,0.3,1.1,0.8,1.4,1.4V5.8c0-0.3,0.1-0.5,0.3-0.7C78.3,4.9,78.5,4.8,78.9,4.8L78.9,4.8z M74.9,18.4
	c0.9,0,1.6-0.3,2.2-1c0.5-0.6,0.8-1.6,0.8-2.7c0-1.2-0.3-2.1-0.8-2.7c-0.5-0.6-1.2-1-2.2-1s-1.7,0.3-2.2,1c-0.5,0.6-0.8,1.5-0.8,2.7
	c0,1.2,0.3,2.1,0.8,2.8C73.2,18.1,74,18.4,74.9,18.4L74.9,18.4z M91.1,17.4c0.2,0,0.4,0.1,0.5,0.2c0.1,0.2,0.2,0.4,0.2,0.6
	c0,0.4-0.3,0.8-0.8,1c-0.5,0.3-1,0.5-1.6,0.7c-0.6,0.2-1.1,0.2-1.7,0.2c-1.7,0-3-0.5-3.9-1.4c-1-1-1.4-2.3-1.4-3.9
	c0-1.1,0.2-2,0.6-2.8c0.4-0.8,1-1.5,1.8-1.9c0.8-0.5,1.6-0.7,2.6-0.7c1.4,0,2.5,0.4,3.3,1.3s1.2,2.1,1.2,3.6c0,0.6-0.3,0.9-0.8,0.9
	h-6.6c0.1,2.2,1.2,3.3,3.2,3.3c0.5,0,1-0.1,1.4-0.2c0.4-0.1,0.8-0.3,1.2-0.6c0,0,0.2-0.1,0.3-0.2C90.8,17.4,91,17.4,91.1,17.4
	L91.1,17.4z M87.4,10.9c-0.8,0-1.5,0.3-2,0.8c-0.5,0.5-0.8,1.3-0.9,2.2H90c0-1-0.3-1.7-0.7-2.2C88.8,11.2,88.2,10.9,87.4,10.9
	L87.4,10.9z M97.9,20.1c-1.5,0-2.6-0.3-3.6-0.9c-0.3-0.2-0.4-0.3-0.6-0.5c-0.1-0.2-0.1-0.4-0.1-0.6c0-0.2,0.1-0.4,0.2-0.6
	c0.1-0.2,0.3-0.2,0.5-0.2c0.2,0,0.5,0.1,0.9,0.3c0.4,0.2,0.8,0.4,1.2,0.6c0.4,0.1,0.9,0.2,1.5,0.2c0.7,0,1.2-0.1,1.6-0.4
	c0.4-0.2,0.6-0.6,0.6-1c0-0.3-0.1-0.5-0.2-0.7c-0.1-0.2-0.4-0.3-0.8-0.4c-0.4-0.1-0.9-0.3-1.6-0.4c-1.3-0.3-2.2-0.6-2.7-1.1
	c-0.5-0.5-0.8-1.1-0.8-1.9c0-0.6,0.2-1.2,0.5-1.6c0.4-0.5,0.8-0.9,1.5-1.2c0.6-0.3,1.3-0.4,2.1-0.4c0.6,0,1.1,0.1,1.7,0.2
	c0.5,0.1,1,0.4,1.4,0.6c0.5,0.3,0.7,0.7,0.7,1.1c0,0.2-0.1,0.4-0.2,0.6c-0.1,0.2-0.3,0.2-0.5,0.2c-0.1,0-0.3,0-0.4-0.1
	c-0.1-0.1-0.3-0.1-0.5-0.3c-0.4-0.2-0.7-0.4-1.1-0.5C98.9,11.1,98.5,11,98,11c-0.6,0-1.1,0.1-1.4,0.4c-0.4,0.3-0.5,0.6-0.5,1
	c0,0.4,0.2,0.7,0.5,0.9c0.3,0.2,1,0.4,1.9,0.6c1,0.2,1.7,0.4,2.2,0.7c0.5,0.3,0.9,0.6,1.2,1c0.2,0.4,0.4,0.8,0.4,1.4
	c0,0.9-0.4,1.7-1.2,2.2C100.2,19.9,99.2,20.1,97.9,20.1L97.9,20.1z M113.3,18.3c0.3,0.2,0.4,0.5,0.4,0.8c0,0.3-0.1,0.5-0.3,0.7
	c-0.2,0.2-0.4,0.3-0.7,0.3c-0.3,0-0.5-0.1-0.7-0.3l-5.3-4.7V19c0,0.3-0.1,0.6-0.3,0.8c-0.2,0.2-0.5,0.3-0.8,0.3
	c-0.3,0-0.6-0.1-0.8-0.3c-0.2-0.2-0.3-0.4-0.3-0.8V5.9c0-0.3,0.1-0.6,0.3-0.8c0.2-0.2,0.5-0.3,0.8-0.3c0.3,0,0.6,0.1,0.8,0.3
	c0.2,0.2,0.3,0.4,0.3,0.8v8.4l4.9-4.5c0.2-0.2,0.5-0.3,0.7-0.3c0.3,0,0.5,0.1,0.7,0.3c0.2,0.2,0.3,0.4,0.3,0.7
	c0,0.3-0.1,0.5-0.4,0.7l-3.8,3.5L113.3,18.3z"/>
<linearGradient id="SVGID_1_" gradientUnits="userSpaceOnUse" x1="-869.7363" y1="567.4366" x2="-869.0394" y2="568.1336" gradientTransform="matrix(26.0005 0 0 -25.9993 22617.4258 14775.125)">
	<stop  offset="0" style="stop-color:#FF8902"/>
	<stop  offset="1" style="stop-color:#E63901"/>
</linearGradient>
<path class="st0" d="M22.3,6.1l-2.1,2.1c-0.4,0.3-0.6,0.9-0.3,1.3c1.4,3,0.9,6.5-1.5,8.9c-2.3,2.3-5.9,2.9-8.9,1.4
	c-0.4-0.2-1,0-1.3,0.3l-2.2,2.2c-0.5,0.4-0.5,1.2,0,1.6c0.1,0.1,0.1,0.1,0.2,0.2c5.1,3.1,11.7,2.3,15.9-1.9c4.2-4.2,5-10.8,2-15.9
	c-0.3-0.6-1-0.7-1.6-0.4C22.5,5.9,22.4,6,22.3,6.1L22.3,6.1z M3.9,3.8c-4.3,4.2-5.1,10.8-2,15.9c0.3,0.6,1,0.7,1.6,0.4
	c0.1,0,0.2-0.1,0.2-0.2l2.1-2.1c0.4-0.3,0.6-0.9,0.4-1.3c-1.4-3-0.9-6.5,1.5-8.9c2.3-2.3,5.9-2.9,8.9-1.5c0.4,0.2,0.9,0,1.3-0.3
	l2.2-2.2c0.5-0.4,0.5-1.2,0-1.6c-0.1-0.1-0.1-0.1-0.2-0.2C14.6-1.2,8-0.4,3.9,3.8L3.9,3.8z"/>
</svg>
