<?xml version="1.0" encoding="utf-8"?>
<!-- Generator: Adobe Illustrator 28.0.0, SVG Export Plug-In . SVG Version: 6.00 Build 0)  -->
<svg version="1.1"
	 id="svg11" xmlns:sodipodi="http://sodipodi.sourceforge.net/DTD/sodipodi-0.dtd" xmlns:svg="http://www.w3.org/2000/svg" xmlns:inkscape="http://www.inkscape.org/namespaces/inkscape"
	 xmlns="http://www.w3.org/2000/svg" xmlns:xlink="http://www.w3.org/1999/xlink" x="0px" y="0px" viewBox="0 0 32 32"
	 style="enable-background:new 0 0 32 32;" xml:space="preserve">
<style type="text/css">
	.st0{fill:#FFFFFF;}
	.st1{fill:url(#path759_00000168833041509209307190000018018327328098908813_);}
</style>
<sodipodi:namedview  bordercolor="#000000" borderopacity="0.25" id="namedview13" inkscape:current-layer="svg11" inkscape:cx="11.119001" inkscape:cy="90.307984" inkscape:deskcolor="#d1d1d1" inkscape:pagecheckerboard="0" inkscape:pageopacity="0.0" inkscape:showpageshadow="2" inkscape:window-height="847" inkscape:window-maximized="1" inkscape:window-width="1440" inkscape:window-x="0" inkscape:window-y="25" inkscape:zoom="1.8436908" pagecolor="#ffffff" showgrid="false" showguides="true">
	</sodipodi:namedview>
<g id="g763" transform="translate(52.008497,8.73577)" inkscape:export-filename="../../Desktop/path9.png" inkscape:export-xdpi="768" inkscape:export-ydpi="768">
	<g id="g761" inkscape:export-filename="./g369.png" inkscape:export-xdpi="3733.2917" inkscape:export-ydpi="3733.2917">
		<path id="rect757" class="st0" d="M-47-8.7h22c2.8,0,5,2.2,5,5v22c0,2.8-2.2,5-5,5h-22c-2.8,0-5-2.2-5-5v-22
			C-52-6.5-49.8-8.7-47-8.7z"/>
		
			<linearGradient id="path759_00000082350364805402969150000010797792460627561093_" gradientUnits="userSpaceOnUse" x1="-961.1685" y1="561.8161" x2="-960.4708" y2="562.513" gradientTransform="matrix(26.0005 0 0 -25.9994 24945.6777 14623.2666)">
			<stop  offset="0" style="stop-color:#FF8E00"/>
			<stop  offset="1" style="stop-color:#E12200"/>
		</linearGradient>
		
			<path id="path759" inkscape:export-filename="../../Desktop/path9.png" inkscape:export-xdpi="2599.3848" inkscape:export-ydpi="2599.3848" sodipodi:nodetypes="ccccccccccccccccccccccccccc" style="fill:url(#path759_00000082350364805402969150000010797792460627561093_);" d="
			M-26.7,0.3l-2.1,2.1c-0.4,0.3-0.6,0.9-0.3,1.3c1.4,3,0.9,6.5-1.5,8.9c-2.3,2.3-5.9,2.9-8.9,1.4c-0.4-0.2-1,0-1.3,0.3l-2.2,2.2
			c-0.3,0.2-0.4,0.6-0.3,1c0,0.4,0.2,0.7,0.5,0.9c5.1,3.1,11.7,2.3,15.9-1.9c4.2-4.2,5-10.8,2-15.9C-25,0.3-25.4,0.1-25.7,0
			C-26.1,0-26.4,0.1-26.7,0.3L-26.7,0.3z M-45.2-2c-4.3,4.2-5.1,10.8-2,15.9c0.2,0.3,0.5,0.5,0.8,0.6c0.4,0,0.7-0.1,1-0.3l2.1-2.1
			c0.4-0.3,0.6-0.9,0.4-1.3c-1.4-3-0.9-6.5,1.5-8.9c2.3-2.3,5.9-2.9,8.9-1.4c0.4,0.2,0.9,0,1.3-0.3l2.2-2.2c0.3-0.2,0.4-0.6,0.3-1
			c0-0.4-0.2-0.7-0.5-0.9C-34.4-7-41-6.1-45.2-2L-45.2-2z"/>
	</g>
</g>
</svg>
